<mxfile host="app.diagrams.net" agent="Mozilla/5.0 (X11; Linux x86_64) AppleWebKit/537.36 (KHTML, like Gecko) Chrome/134.0.0.0 Safari/537.36" version="26.2.14">
  <diagram name="Page-1" id="9Lix9jP-tOsQLzWkuPLo">
    <mxGraphModel dx="1422" dy="792" grid="1" gridSize="10" guides="1" tooltips="1" connect="1" arrows="1" fold="1" page="1" pageScale="1" pageWidth="850" pageHeight="1100" math="0" shadow="0">
      <root>
        <mxCell id="0" />
        <mxCell id="1" parent="0" />
        <mxCell id="jQYgwSBXPabg03TYDZN4-1" value="Even Channel" style="shape=cylinder3;whiteSpace=wrap;html=1;boundedLbl=1;backgroundOutline=1;size=15;" vertex="1" parent="1">
          <mxGeometry x="220" y="280" width="60" height="80" as="geometry" />
        </mxCell>
        <mxCell id="jQYgwSBXPabg03TYDZN4-2" value="Odd Channel" style="shape=cylinder3;whiteSpace=wrap;html=1;boundedLbl=1;backgroundOutline=1;size=15;" vertex="1" parent="1">
          <mxGeometry x="520" y="280" width="60" height="80" as="geometry" />
        </mxCell>
        <mxCell id="jQYgwSBXPabg03TYDZN4-3" value="" style="endArrow=classic;html=1;rounded=0;entryX=0;entryY=0;entryDx=0;entryDy=27.5;entryPerimeter=0;exitX=1;exitY=0;exitDx=0;exitDy=27.5;exitPerimeter=0;curved=1;" edge="1" parent="1" source="jQYgwSBXPabg03TYDZN4-1" target="jQYgwSBXPabg03TYDZN4-2">
          <mxGeometry width="50" height="50" relative="1" as="geometry">
            <mxPoint x="400" y="430" as="sourcePoint" />
            <mxPoint x="450" y="380" as="targetPoint" />
            <Array as="points">
              <mxPoint x="400" y="270" />
            </Array>
          </mxGeometry>
        </mxCell>
        <mxCell id="jQYgwSBXPabg03TYDZN4-4" value="" style="endArrow=none;html=1;rounded=0;entryX=0;entryY=0;entryDx=0;entryDy=52.5;entryPerimeter=0;exitX=1;exitY=0;exitDx=0;exitDy=52.5;exitPerimeter=0;curved=1;startArrow=classic;startFill=0;" edge="1" parent="1" source="jQYgwSBXPabg03TYDZN4-1" target="jQYgwSBXPabg03TYDZN4-2">
          <mxGeometry width="50" height="50" relative="1" as="geometry">
            <mxPoint x="290" y="318" as="sourcePoint" />
            <mxPoint x="530" y="318" as="targetPoint" />
            <Array as="points">
              <mxPoint x="400" y="370" />
            </Array>
          </mxGeometry>
        </mxCell>
        <mxCell id="jQYgwSBXPabg03TYDZN4-5" value="&lt;b&gt;Update()&lt;/b&gt;: update enemy locations, add new enemies" style="text;html=1;align=center;verticalAlign=middle;whiteSpace=wrap;rounded=0;" vertex="1" parent="1">
          <mxGeometry x="330" y="240" width="140" height="40" as="geometry" />
        </mxCell>
        <mxCell id="jQYgwSBXPabg03TYDZN4-6" value="&lt;b&gt;Draw()&lt;/b&gt;: Draw enemies to screen, and move back to even channel" style="text;html=1;align=center;verticalAlign=middle;whiteSpace=wrap;rounded=0;" vertex="1" parent="1">
          <mxGeometry x="330" y="370" width="140" height="40" as="geometry" />
        </mxCell>
      </root>
    </mxGraphModel>
  </diagram>
</mxfile>
